<svg xmlns="http://www.w3.org/2000/svg" viewBox="0 0 400 240" width="400" height="240">
  <rect width="400" height="240" fill="#FAF7F2"/>
  <g transform="translate(40,40)">
    <!-- Botanical Ornament -->
    <g transform="translate(10, 0)">
      <path d="M8,13 C28,5 52,17 72,13" fill="none" stroke="#C9A96E" stroke-width="0.6" opacity="0.38"/>
      <ellipse cx="22" cy="8.5" rx="5" ry="2.8" fill="none" stroke="#C9A96E" stroke-width="0.45" opacity="0.28" transform="rotate(-28,22,8.5)"/>
      <line x1="72" y1="13" x2="125" y2="13" stroke="#C9A96E" stroke-width="0.4" opacity="0.18"/>
      <circle cx="150" cy="13" r="3.5" fill="none" stroke="#C9A96E" stroke-width="0.65" opacity="0.7"/>
      <circle cx="150" cy="13" r="1.5" fill="#C9A96E" opacity="0.5"/>
      <ellipse cx="150" cy="5" rx="1.8" ry="4" fill="none" stroke="#C9A96E" stroke-width="0.45" opacity="0.42"/>
      <ellipse cx="150" cy="21" rx="1.8" ry="4" fill="none" stroke="#C9A96E" stroke-width="0.45" opacity="0.42"/>
      <ellipse cx="142" cy="13" rx="4" ry="1.8" fill="none" stroke="#C9A96E" stroke-width="0.45" opacity="0.42"/>
      <ellipse cx="158" cy="13" rx="4" ry="1.8" fill="none" stroke="#C9A96E" stroke-width="0.45" opacity="0.42"/>
      <line x1="175" y1="13" x2="228" y2="13" stroke="#C9A96E" stroke-width="0.4" opacity="0.18"/>
      <path d="M228,13 C248,5 272,17 292,13" fill="none" stroke="#C9A96E" stroke-width="0.6" opacity="0.38"/>
      <ellipse cx="278" cy="8.5" rx="5" ry="2.8" fill="none" stroke="#C9A96E" stroke-width="0.45" opacity="0.28" transform="rotate(28,278,8.5)"/>
    </g>
    <!-- Wordmark -->
    <text x="160" y="85" text-anchor="middle" font-family="'Cormorant Garamond',serif" font-size="76" font-weight="300" font-style="italic" letter-spacing="0.12em" fill="#1A1A1A" text-transform="uppercase">
      H<tspan fill="#C9A96E">A</tspan>V<tspan fill="#C9A96E">A</tspan>KU
    </text>
    <!-- Rule and Tagline -->
    <g transform="translate(0, 105)">
      <line x1="10" y1="5" x2="130" y2="5" stroke="#C9A96E" stroke-width="0.5" opacity="0.38"/>
      <text x="160" y="8" text-anchor="middle" font-family="'Manrope',sans-serif" font-size="8.5" font-weight="200" letter-spacing="0.55em" fill="#7D6B5E" opacity="0.48" text-transform="uppercase">BEAUTY &amp; BRIDAL</text>
      <line x1="190" y1="5" x2="310" y2="5" stroke="#C9A96E" stroke-width="0.5" opacity="0.38"/>
    </g>
    <text x="160" y="145" text-anchor="middle" font-family="'Cormorant Garamond',serif" font-size="15" font-style="italic" font-weight="300" letter-spacing="0.1em" fill="#7D6B5E" opacity="0.6">Handcrafted rituals for your most radiant self</text>
    <line x1="135" y1="158" x2="185" y2="158" stroke="#C9A96E" stroke-width="1" opacity="0.7"/>
  </g>
</svg>
