<svg xmlns="http://www.w3.org/2000/svg" viewBox="0 0 400 240" width="400" height="240">
  <rect width="400" height="240" fill="#1A1A1A"/>
  <g transform="translate(40,40)">
    <!-- Botanical Ornament -->
    <g transform="translate(0, 0)">
      <path d="M8,15 C30,6 55,18 75,15" fill="none" stroke="#C9A96E" stroke-width="0.6" opacity="0.45"/>
      <path d="M25,15 C32,7 42,8 50,13" fill="none" stroke="#C9A96E" stroke-width="0.45" opacity="0.35"/>
      <ellipse cx="22" cy="10" rx="5" ry="2.8" fill="none" stroke="#C9A96E" stroke-width="0.45" opacity="0.3" transform="rotate(-28,22,10)"/>
      <ellipse cx="58" cy="10" rx="5" ry="2.8" fill="none" stroke="#C9A96E" stroke-width="0.45" opacity="0.3" transform="rotate(18,58,10)"/>
      <line x1="75" y1="15" x2="133" y2="15" stroke="#C9A96E" stroke-width="0.4" opacity="0.2"/>
      <circle cx="160" cy="15" r="4" fill="none" stroke="#C9A96E" stroke-width="0.7" opacity="0.8"/>
      <circle cx="160" cy="15" r="1.8" fill="#C9A96E" opacity="0.6"/>
      <ellipse cx="160" cy="7" rx="2" ry="4.5" fill="none" stroke="#C9A96E" stroke-width="0.5" opacity="0.5"/>
      <ellipse cx="160" cy="23" rx="2" ry="4.5" fill="none" stroke="#C9A96E" stroke-width="0.5" opacity="0.5"/>
      <ellipse cx="152" cy="15" rx="4.5" ry="2" fill="none" stroke="#C9A96E" stroke-width="0.5" opacity="0.5"/>
      <ellipse cx="168" cy="15" rx="4.5" ry="2" fill="none" stroke="#C9A96E" stroke-width="0.5" opacity="0.5"/>
      <ellipse cx="154" cy="9" rx="3" ry="5" fill="none" stroke="#C9A96E" stroke-width="0.4" opacity="0.35" transform="rotate(-45,154,9)"/>
      <ellipse cx="166" cy="9" rx="3" ry="5" fill="none" stroke="#C9A96E" stroke-width="0.4" opacity="0.35" transform="rotate(45,166,9)"/>
      <ellipse cx="154" cy="21" rx="3" ry="5" fill="none" stroke="#C9A96E" stroke-width="0.4" opacity="0.35" transform="rotate(45,154,21)"/>
      <ellipse cx="166" cy="21" rx="3" ry="5" fill="none" stroke="#C9A96E" stroke-width="0.4" opacity="0.35" transform="rotate(-45,166,21)"/>
      <line x1="187" y1="15" x2="245" y2="15" stroke="#C9A96E" stroke-width="0.4" opacity="0.2"/>
      <path d="M245,15 C265,6 290,18 312,15" fill="none" stroke="#C9A96E" stroke-width="0.6" opacity="0.45"/>
      <path d="M270,15 C278,7 288,8 295,13" fill="none" stroke="#C9A96E" stroke-width="0.45" opacity="0.35"/>
      <ellipse cx="262" cy="10" rx="5" ry="2.8" fill="none" stroke="#C9A96E" stroke-width="0.45" opacity="0.3" transform="rotate(-18,262,10)"/>
      <ellipse cx="298" cy="10" rx="5" ry="2.8" fill="none" stroke="#C9A96E" stroke-width="0.45" opacity="0.3" transform="rotate(28,298,10)"/>
    </g>
    <!-- Wordmark -->
    <text x="160" y="85" text-anchor="middle" font-family="'Cormorant Garamond',serif" font-size="80" font-weight="300" font-style="italic" letter-spacing="0.12em" fill="#FAF7F2" text-transform="uppercase">
      H<tspan fill="#C9A96E">A</tspan>V<tspan fill="#C9A96E">A</tspan>KU
    </text>
    <!-- Rule and Tagline -->
    <g transform="translate(0, 105)">
      <line x1="0" y1="5" x2="130" y2="5" stroke="#C9A96E" stroke-width="0.5" opacity="0.45"/>
      <text x="160" y="8" text-anchor="middle" font-family="'Manrope',sans-serif" font-size="8.5" font-weight="200" letter-spacing="0.55em" fill="#C9A96E" opacity="0.55" text-transform="uppercase">BEAUTY &amp; BRIDAL</text>
      <line x1="190" y1="5" x2="320" y2="5" stroke="#C9A96E" stroke-width="0.5" opacity="0.45"/>
    </g>
    <text x="160" y="145" text-anchor="middle" font-family="'Cormorant Garamond',serif" font-size="15" font-style="italic" font-weight="300" letter-spacing="0.1em" fill="#FAF7F2" opacity="0.45">Handcrafted rituals for your most radiant self</text>
    <line x1="135" y1="158" x2="185" y2="158" stroke="#C9A96E" stroke-width="1" opacity="0.7"/>
  </g>
</svg>
