<svg xmlns="http://www.w3.org/2000/svg" viewBox="0 0 520 100" width="520" height="100">
  <g transform="translate(32, 18)">
    <!-- Lotus Icon -->
    <g transform="translate(0, 0)">
      <circle cx="22" cy="22" r="9" fill="none" stroke="#C9A96E" stroke-width="0.9" opacity="0.9"/>
      <circle cx="22" cy="22" r="3.5" fill="#C9A96E" opacity="0.75"/>
      <ellipse cx="22" cy="8" rx="3" ry="7" fill="none" stroke="#C9A96E" stroke-width="0.6" opacity="0.5"/>
      <ellipse cx="22" cy="36" rx="3" ry="7" fill="none" stroke="#C9A96E" stroke-width="0.6" opacity="0.5"/>
      <ellipse cx="8" cy="22" rx="7" ry="3" fill="none" stroke="#C9A96E" stroke-width="0.6" opacity="0.5"/>
      <ellipse cx="36" cy="22" rx="7" ry="3" fill="none" stroke="#C9A96E" stroke-width="0.6" opacity="0.5"/>
      <ellipse cx="11" cy="11" rx="4" ry="6.5" fill="none" stroke="#C9A96E" stroke-width="0.5" opacity="0.32" transform="rotate(-45,11,11)"/>
      <ellipse cx="33" cy="11" rx="4" ry="6.5" fill="none" stroke="#C9A96E" stroke-width="0.5" opacity="0.32" transform="rotate(45,33,11)"/>
      <ellipse cx="11" cy="33" rx="4" ry="6.5" fill="none" stroke="#C9A96E" stroke-width="0.5" opacity="0.32" transform="rotate(45,11,33)"/>
      <ellipse cx="33" cy="33" rx="4" ry="6.5" fill="none" stroke="#C9A96E" stroke-width="0.5" opacity="0.32" transform="rotate(-45,33,33)"/>
    </g>
    <!-- Wordmark & Tagline -->
    <g transform="translate(68, 14)">
      <text x="0" y="24" font-family="'Cormorant Garamond',serif" font-size="30" font-weight="300" font-style="italic" letter-spacing="0.12em" fill="#1A1A1A" text-transform="uppercase">
        H<tspan fill="#C9A96E">A</tspan>V<tspan fill="#C9A96E">A</tspan>KU
      </text>
      <line x1="0" y1="34" x2="160" y2="34" stroke="#C9A96E" stroke-width="0.5" opacity="0.3"/>
      <text x="0" y="46" font-family="'Manrope',sans-serif" font-size="7.5" font-weight="200" letter-spacing="0.42em" fill="#C9A96E" opacity="0.5" text-transform="uppercase">Beauty &nbsp;&amp;&nbsp; Bridal</text>
    </g>
  </g>
</svg>
